<?xml version="1.0" standalone="no"?>
<!DOCTYPE svg PUBLIC "-//W3C//DTD SVG 20010904//EN"
 "http://www.w3.org/TR/2001/REC-SVG-20010904/DTD/svg10.dtd">
<svg version="1.0" xmlns="http://www.w3.org/2000/svg"
 width="260.000000pt" height="260.000000pt" viewBox="0 0 260.000000 260.000000"
 preserveAspectRatio="xMidYMid meet">
<metadata>
Created by potrace 1.11, written by Peter Selinger 2001-2013
</metadata>
<g transform="translate(0.000000,260.000000) scale(0.100000,-0.100000)"
fill="#000000" stroke="none">
<path d="M1076 2584 c-98 -18 -263 -72 -348 -115 -366 -182 -633 -541 -703
-943 -20 -115 -20 -337 0 -452 19 -105 71 -267 116 -356 182 -366 541 -633
943 -703 115 -20 337 -20 452 0 509 89 911 465 1040 974 22 84 24 115 24 311
0 196 -2 227 -24 311 -65 257 -183 460 -372 638 -184 174 -418 292 -668 336
-111 19 -352 19 -460 -1z"/>
</g>
</svg>
